<svg xmlns="http://www.w3.org/2000/svg" xmlns:xlink="http://www.w3.org/1999/xlink" width="500" zoomAndPan="magnify" viewBox="0 0 375 374.999991" height="500" preserveAspectRatio="xMidYMid meet" version="1.0"><defs><g/><clipPath id="58c4d88599"><path d="M 187.5 140 L 217 140 L 217 168.285156 L 187.5 168.285156 Z M 187.5 140 " clip-rule="nonzero"/></clipPath><clipPath id="1f4d007434"><path d="M 268 129.292969 L 282 129.292969 L 282 144 L 268 144 Z M 268 129.292969 " clip-rule="nonzero"/></clipPath><clipPath id="56c45e2d60"><rect x="0" width="252" y="0" height="68"/></clipPath></defs><path fill="#c85711" d="M 269.746094 140.046875 C 264.757812 144.449219 259.308594 149.304688 254.320312 153.703125 C 254.324219 153.707031 254.324219 153.714844 254.328125 153.71875 C 254.378906 153.785156 254.425781 153.863281 254.46875 153.949219 C 254.519531 154.03125 254.554688 154.117188 254.585938 154.199219 C 254.957031 155.019531 255.171875 155.898438 255.238281 156.789062 C 260.648438 152.019531 266.519531 146.789062 271.933594 142.015625 C 271.078125 141.511719 270.328125 140.839844 269.746094 140.046875 Z M 269.746094 140.046875 " fill-opacity="1" fill-rule="nonzero"/><path fill="#c85711" d="M 228.953125 140.074219 C 228.875 141.160156 228.539062 142.207031 228.003906 143.128906 C 232.539062 147.128906 237.53125 151.585938 242.066406 155.582031 C 242.300781 154.589844 242.746094 153.652344 243.390625 152.855469 C 238.730469 148.75 233.613281 144.183594 228.953125 140.074219 Z M 228.953125 140.074219 " fill-opacity="1" fill-rule="nonzero"/><g clip-path="url(#58c4d88599)"><path fill="#c85711" d="M 198.777344 155.8125 C 197.636719 154.949219 196.210938 154.414062 194.589844 154.328125 C 190.644531 154.113281 187.792969 157.683594 187.597656 161.320312 C 187.382812 165.265625 190.953125 168.117188 194.589844 168.3125 C 198.375 168.515625 201.148438 165.234375 201.539062 161.757812 C 201.570312 161.621094 201.589844 161.480469 201.582031 161.320312 C 201.589844 161.160156 201.570312 161.023438 201.539062 160.890625 C 201.429688 159.839844 201.136719 158.875 200.679688 158.03125 C 205.988281 153.351562 211.527344 148.441406 216.835938 143.761719 C 216.214844 142.949219 215.773438 142.007812 215.578125 140.976562 C 210.054688 145.84375 204.300781 150.941406 198.777344 155.8125 Z M 190.523438 161.320312 C 190.242188 156.074219 198.371094 156.101562 198.652344 161.320312 C 198.371094 166.558594 190.804688 166.558594 190.523438 161.320312 Z M 190.523438 161.320312 " fill-opacity="1" fill-rule="nonzero"/></g><path fill="#c85711" d="M 229.148438 138.984375 C 229.140625 138.929688 229.132812 138.875 229.121094 138.824219 C 229.117188 138.75 229.113281 138.671875 229.097656 138.59375 C 228.433594 135.078125 225.175781 132.597656 221.609375 132.898438 C 217.980469 133.203125 215.339844 136.292969 215.242188 139.855469 C 215.226562 140.316406 215.265625 140.769531 215.347656 141.203125 C 215.542969 142.238281 215.984375 143.179688 216.605469 143.988281 C 217.984375 145.78125 220.230469 146.90625 222.566406 146.835938 C 225 146.765625 227.078125 145.339844 228.234375 143.359375 C 228.769531 142.4375 229.105469 141.390625 229.183594 140.304688 C 229.214844 139.867188 229.207031 139.425781 229.148438 138.984375 Z M 222.566406 143.910156 C 220.144531 144.128906 218.285156 142.175781 218.167969 139.855469 C 218.0625 137.765625 219.785156 136.191406 221.695312 135.816406 C 223.933594 135.375 225.785156 137.195312 226.242188 139.214844 C 226.429688 141.535156 225.03125 143.6875 222.566406 143.910156 Z M 222.566406 143.910156 " fill-opacity="1" fill-rule="nonzero"/><path fill="#c85711" d="M 254.699219 153.71875 C 254.65625 153.632812 254.609375 153.558594 254.558594 153.488281 C 254.554688 153.484375 254.550781 153.480469 254.550781 153.472656 C 252.519531 150.265625 248.484375 149.234375 245.109375 151.019531 C 244.332031 151.429688 243.679688 151.980469 243.160156 152.625 C 242.515625 153.421875 242.074219 154.359375 241.835938 155.355469 C 241.417969 157.128906 241.65625 159.082031 242.589844 160.703125 C 244.4375 163.925781 248.492188 164.792969 251.722656 163.332031 C 254.410156 162.117188 255.664062 159.300781 255.46875 156.558594 C 255.40625 155.667969 255.1875 154.789062 254.816406 153.96875 C 254.785156 153.886719 254.75 153.800781 254.699219 153.71875 Z M 250.515625 160.664062 C 248.777344 161.695312 246.429688 161.070312 245.273438 159.472656 C 243.933594 157.625 244.445312 155.019531 246.292969 153.726562 C 248.320312 152.304688 250.988281 153.15625 252.171875 155.195312 C 253.1875 157.222656 252.429688 159.527344 250.515625 160.664062 Z M 250.515625 160.664062 " fill-opacity="1" fill-rule="nonzero"/><g clip-path="url(#1f4d007434)"><path fill="#c85711" d="M 282.226562 135.964844 C 282.125 132.289062 279.023438 129.515625 275.484375 129.296875 C 275.40625 129.289062 275.328125 129.285156 275.242188 129.285156 C 275.160156 129.285156 275.078125 129.289062 275.003906 129.296875 C 271.328125 129.511719 268.566406 132.289062 268.257812 135.964844 C 268.125 137.570312 268.625 139.066406 269.515625 140.277344 C 270.097656 141.070312 270.851562 141.742188 271.703125 142.246094 C 272.941406 142.980469 274.398438 143.359375 275.867188 143.234375 C 279.585938 142.921875 282.328125 139.640625 282.226562 135.964844 Z M 275.78125 140.316406 C 273.175781 140.832031 271.121094 138.355469 271.1875 135.964844 C 271.246094 133.824219 273.222656 132.269531 275.242188 132.210938 C 277.355469 132.273438 279.121094 133.824219 279.300781 135.964844 C 279.484375 138.179688 277.863281 139.90625 275.78125 140.316406 Z M 275.78125 140.316406 " fill-opacity="1" fill-rule="nonzero"/></g><g transform="matrix(1, 0, 0, 1, 37, 160)"><g clip-path="url(#56c45e2d60)"><g fill="#1f0e03" fill-opacity="1"><g transform="translate(0.812502, 54.658407)"><g><path d="M 26.203125 -10.03125 L 14.171875 -10.03125 L 10.921875 0 L 0.21875 0 L 14.171875 -38.640625 L 26.484375 -38.640625 L 40.4375 0 L 29.453125 0 Z M 20.21875 -29.734375 L 16.625 -17.859375 L 23.796875 -17.859375 Z M 20.21875 -29.734375 "/></g></g></g><g fill="#1f0e03" fill-opacity="1"><g transform="translate(39.844496, 54.658407)"><g><path d="M 34.4375 -29.90625 L 34.4375 10.96875 L 24.359375 10.96875 L 24.359375 -4.375 L 22.125 -1.0625 C 21.300781 -0.46875 20.207031 -0.015625 18.84375 0.296875 C 17.476562 0.617188 16.03125 0.78125 14.5 0.78125 C 11.8125 0.78125 9.476562 0.140625 7.5 -1.140625 C 5.519531 -2.429688 4 -4.207031 2.9375 -6.46875 C 1.875 -8.726562 1.34375 -11.332031 1.34375 -14.28125 C 1.34375 -17.820312 1.984375 -20.816406 3.265625 -23.265625 C 4.554688 -25.710938 6.285156 -27.5625 8.453125 -28.8125 C 10.617188 -30.0625 12.972656 -30.6875 15.515625 -30.6875 C 16.742188 -30.6875 18.007812 -30.554688 19.3125 -30.296875 C 20.625 -30.035156 21.65625 -29.679688 22.40625 -29.234375 L 24.359375 -26.046875 L 24.359375 -29.90625 Z M 17.96875 -6.046875 C 19.84375 -6.046875 21.375 -6.679688 22.5625 -7.953125 C 23.757812 -9.222656 24.359375 -11.425781 24.359375 -14.5625 L 24.359375 -15.84375 C 24.359375 -17.863281 24.054688 -19.453125 23.453125 -20.609375 C 22.859375 -21.765625 22.09375 -22.59375 21.15625 -23.09375 C 20.226562 -23.601562 19.257812 -23.859375 18.25 -23.859375 C 16.3125 -23.859375 14.722656 -23.109375 13.484375 -21.609375 C 12.253906 -20.117188 11.640625 -17.84375 11.640625 -14.78125 C 11.640625 -11.976562 12.253906 -9.820312 13.484375 -8.3125 C 14.722656 -6.800781 16.21875 -6.046875 17.96875 -6.046875 Z M 17.96875 -6.046875 "/></g></g></g><g fill="#1f0e03" fill-opacity="1"><g transform="translate(77.30849, 54.658407)"><g><path d="M 32.8125 -29.90625 L 32.8125 0 L 22.734375 0 L 22.734375 -5.046875 L 20.046875 -0.953125 C 19.109375 -0.390625 18.097656 0.0351562 17.015625 0.328125 C 15.941406 0.628906 14.710938 0.78125 13.328125 0.78125 C 10.265625 0.78125 7.816406 0.0351562 5.984375 -1.453125 C 4.160156 -2.953125 3.082031 -4.726562 2.75 -6.78125 C 2.632812 -7.519531 2.554688 -8.347656 2.515625 -9.265625 C 2.484375 -10.179688 2.46875 -11.238281 2.46875 -12.4375 L 2.46875 -29.90625 L 12.546875 -29.90625 L 12.546875 -14.671875 C 12.546875 -14.179688 12.5625 -13.5625 12.59375 -12.8125 C 12.632812 -12.070312 12.691406 -11.328125 12.765625 -10.578125 C 12.953125 -9.160156 13.410156 -8.050781 14.140625 -7.25 C 14.867188 -6.445312 16.035156 -6.046875 17.640625 -6.046875 C 19.242188 -6.046875 20.492188 -6.707031 21.390625 -8.03125 C 22.285156 -9.363281 22.734375 -11.015625 22.734375 -12.984375 L 22.734375 -29.90625 Z M 32.8125 -29.90625 "/></g></g></g><g fill="#1f0e03" fill-opacity="1"><g transform="translate(113.148487, 54.658407)"><g><path d="M 20.546875 0 L 19.875 -4.375 L 18.640625 -1.234375 C 16.515625 0.109375 14.050781 0.78125 11.25 0.78125 C 9.613281 0.78125 8.066406 0.445312 6.609375 -0.21875 C 5.148438 -0.894531 3.960938 -1.894531 3.046875 -3.21875 C 2.140625 -4.539062 1.6875 -6.15625 1.6875 -8.0625 C 1.6875 -11.269531 3.113281 -13.789062 5.96875 -15.625 C 8.820312 -17.457031 12.785156 -18.375 17.859375 -18.375 L 19.765625 -18.375 L 19.765625 -18.8125 C 19.765625 -19.113281 19.765625 -19.429688 19.765625 -19.765625 C 19.765625 -20.097656 19.726562 -20.507812 19.65625 -21 C 19.582031 -21.75 19.238281 -22.410156 18.625 -22.984375 C 18.007812 -23.566406 17.160156 -23.859375 16.078125 -23.859375 C 14.921875 -23.859375 14.003906 -23.503906 13.328125 -22.796875 C 12.648438 -22.085938 12.273438 -21.078125 12.203125 -19.765625 L 2.6875 -19.71875 C 2.726562 -22.0625 3.375 -24.046875 4.625 -25.671875 C 5.875 -27.296875 7.539062 -28.535156 9.625 -29.390625 C 11.71875 -30.253906 14.015625 -30.6875 16.515625 -30.6875 C 19.691406 -30.6875 22.210938 -30.253906 24.078125 -29.390625 C 25.941406 -28.535156 27.300781 -27.390625 28.15625 -25.953125 C 29.019531 -24.515625 29.53125 -22.882812 29.6875 -21.0625 C 29.789062 -19.5625 29.84375 -17.859375 29.84375 -15.953125 L 29.84375 -7.5625 C 29.84375 -6.4375 29.878906 -5.304688 29.953125 -4.171875 C 30.035156 -3.035156 30.1875 -1.644531 30.40625 0 Z M 15.40625 -6.046875 C 16.40625 -6.046875 17.378906 -6.425781 18.328125 -7.1875 C 19.285156 -7.957031 19.765625 -9.128906 19.765625 -10.703125 L 19.765625 -12.65625 C 17.492188 -12.84375 15.628906 -12.628906 14.171875 -12.015625 C 12.710938 -11.398438 11.984375 -10.34375 11.984375 -8.84375 C 11.984375 -7.945312 12.300781 -7.253906 12.9375 -6.765625 C 13.570312 -6.285156 14.394531 -6.046875 15.40625 -6.046875 Z M 15.40625 -6.046875 "/></g></g></g><g fill="#1f0e03" fill-opacity="1"><g transform="translate(146.020481, 54.658407)"><g><path d="M 34.109375 -8.515625 L 34.109375 0 L 4.484375 0 L 4.484375 -38.640625 L 14.5625 -38.640625 L 14.5625 -8.515625 Z M 34.109375 -8.515625 "/></g></g><g transform="translate(181.188482, 54.658407)"><g><path d="M 20.546875 0 L 19.875 -4.375 L 18.640625 -1.234375 C 16.515625 0.109375 14.050781 0.78125 11.25 0.78125 C 9.613281 0.78125 8.066406 0.445312 6.609375 -0.21875 C 5.148438 -0.894531 3.960938 -1.894531 3.046875 -3.21875 C 2.140625 -4.539062 1.6875 -6.15625 1.6875 -8.0625 C 1.6875 -11.269531 3.113281 -13.789062 5.96875 -15.625 C 8.820312 -17.457031 12.785156 -18.375 17.859375 -18.375 L 19.765625 -18.375 L 19.765625 -18.8125 C 19.765625 -19.113281 19.765625 -19.429688 19.765625 -19.765625 C 19.765625 -20.097656 19.726562 -20.507812 19.65625 -21 C 19.582031 -21.75 19.238281 -22.410156 18.625 -22.984375 C 18.007812 -23.566406 17.160156 -23.859375 16.078125 -23.859375 C 14.921875 -23.859375 14.003906 -23.503906 13.328125 -22.796875 C 12.648438 -22.085938 12.273438 -21.078125 12.203125 -19.765625 L 2.6875 -19.71875 C 2.726562 -22.0625 3.375 -24.046875 4.625 -25.671875 C 5.875 -27.296875 7.539062 -28.535156 9.625 -29.390625 C 11.71875 -30.253906 14.015625 -30.6875 16.515625 -30.6875 C 19.691406 -30.6875 22.210938 -30.253906 24.078125 -29.390625 C 25.941406 -28.535156 27.300781 -27.390625 28.15625 -25.953125 C 29.019531 -24.515625 29.53125 -22.882812 29.6875 -21.0625 C 29.789062 -19.5625 29.84375 -17.859375 29.84375 -15.953125 L 29.84375 -7.5625 C 29.84375 -6.4375 29.878906 -5.304688 29.953125 -4.171875 C 30.035156 -3.035156 30.1875 -1.644531 30.40625 0 Z M 15.40625 -6.046875 C 16.40625 -6.046875 17.378906 -6.425781 18.328125 -7.1875 C 19.285156 -7.957031 19.765625 -9.128906 19.765625 -10.703125 L 19.765625 -12.65625 C 17.492188 -12.84375 15.628906 -12.628906 14.171875 -12.015625 C 12.710938 -11.398438 11.984375 -10.34375 11.984375 -8.84375 C 11.984375 -7.945312 12.300781 -7.253906 12.9375 -6.765625 C 13.570312 -6.285156 14.394531 -6.046875 15.40625 -6.046875 Z M 15.40625 -6.046875 "/></g></g></g><g fill="#1f0e03" fill-opacity="1"><g transform="translate(214.06049, 54.658407)"><g><path d="M 22.953125 -30.6875 C 25.679688 -30.6875 28.023438 -30.039062 29.984375 -28.75 C 31.941406 -27.46875 33.453125 -25.695312 34.515625 -23.4375 C 35.585938 -21.175781 36.125 -18.570312 36.125 -15.625 C 36.125 -12.070312 35.476562 -9.070312 34.1875 -6.625 C 32.894531 -4.1875 31.175781 -2.34375 29.03125 -1.09375 C 26.882812 0.15625 24.523438 0.78125 21.953125 0.78125 C 20.722656 0.78125 19.453125 0.648438 18.140625 0.390625 C 16.835938 0.128906 15.8125 -0.222656 15.0625 -0.671875 L 13.109375 -3.859375 L 13.109375 0 L 3.03125 0 L 3.03125 -41.15625 L 13.109375 -41.15625 L 13.109375 -25.53125 L 15.34375 -28.84375 C 16.195312 -29.476562 17.304688 -29.941406 18.671875 -30.234375 C 20.035156 -30.535156 21.460938 -30.6875 22.953125 -30.6875 Z M 19.203125 -6.046875 C 21.179688 -6.046875 22.773438 -6.789062 23.984375 -8.28125 C 25.203125 -9.78125 25.8125 -12.0625 25.8125 -15.125 C 25.8125 -17.914062 25.195312 -20.066406 23.96875 -21.578125 C 22.738281 -23.097656 21.242188 -23.859375 19.484375 -23.859375 C 17.660156 -23.859375 16.140625 -23.222656 14.921875 -21.953125 C 13.710938 -20.679688 13.109375 -18.476562 13.109375 -15.34375 L 13.109375 -14.0625 C 13.109375 -12.082031 13.40625 -10.503906 14 -9.328125 C 14.59375 -8.148438 15.359375 -7.304688 16.296875 -6.796875 C 17.234375 -6.296875 18.203125 -6.046875 19.203125 -6.046875 Z M 19.203125 -6.046875 "/></g></g></g></g></g></svg>